<svg width="75" height="75" viewBox="0 0 75 75" fill="none" xmlns="http://www.w3.org/2000/svg">
<g id="wallet logo/Phantom Wallet">
<g id="Group 162352">
<path id="Vector" d="M37.4976 67.2632C53.8706 67.2632 67.1436 53.9903 67.1436 37.6172C67.1436 21.2442 53.8706 7.97119 37.4976 7.97119C21.1245 7.97119 7.85156 21.2442 7.85156 37.6172C7.85156 53.9903 21.1245 67.2632 37.4976 67.2632Z" fill="url(#paint0_linear_259_3279)"/>
<path id="Vector_2" d="M58.7431 37.9966H53.5094C53.5094 27.2882 44.867 18.6113 34.193 18.6113C23.6224 18.6113 15.0144 27.0472 14.8078 37.6178C14.6012 48.4295 24.7931 57.8295 35.6392 57.8295H37.0165C46.5886 57.8295 59.4317 50.3577 61.4288 41.2676C61.7387 39.7871 60.7746 38.3753 59.294 38.0655C59.1218 37.9966 58.9497 37.9966 58.7431 37.9966ZM26.377 38.4786C26.377 39.9248 25.2063 41.061 23.7601 41.061C22.314 41.061 21.1777 39.8904 21.1777 38.4786V34.2779C21.1777 32.8318 22.3484 31.6955 23.7945 31.6955C25.2407 31.6955 26.377 32.8662 26.377 34.2779V38.4786ZM35.3982 38.4786C35.3982 39.9248 34.2275 41.061 32.7813 41.061C31.3352 41.061 30.1989 39.8904 30.1989 38.4786V34.2779C30.1989 32.8318 31.3696 31.6955 32.8157 31.6955C34.2619 31.6955 35.3982 32.8662 35.3982 34.2779V38.4786Z" fill="url(#paint1_linear_259_3279)"/>
</g>
</g>
<defs>
<linearGradient id="paint0_linear_259_3279" x1="37.5114" y1="7.97119" x2="37.5114" y2="67.2908" gradientUnits="userSpaceOnUse">
<stop stop-color="#534BB1"/>
<stop offset="1" stop-color="#551BF9"/>
</linearGradient>
<linearGradient id="paint1_linear_259_3279" x1="38.1437" y1="18.7009" x2="38.1437" y2="57.826" gradientUnits="userSpaceOnUse">
<stop stop-color="white"/>
<stop offset="1" stop-color="white" stop-opacity="0.82"/>
</linearGradient>
</defs>
</svg>
