<svg width="25" height="25" viewBox="0 0 25 25" fill="none" xmlns="http://www.w3.org/2000/svg">
<g clip-path="url(#clip0_21_671)">
<path d="M13.284 25.0002H11.7698C11.3045 24.939 10.8367 24.887 10.3738 24.8087C5.23702 23.9394 1.10256 19.8288 0.198743 14.6971C0.116188 14.2267 0.0654322 13.7508 0 13.2773V11.7634C0.0140649 11.6844 0.0317984 11.6061 0.0415826 11.5266C0.102734 11.0752 0.132087 10.6188 0.217087 10.1729C0.682451 7.72606 1.76422 5.58507 3.51561 3.81723C6.56034 0.740327 10.2557 -0.473918 14.5229 0.165932C17.1848 0.564767 19.4713 1.77962 21.3596 3.69917C23.6987 6.07689 24.9205 8.94887 24.9951 12.2864C25.0428 14.4274 24.5456 16.446 23.5507 18.3423C23.4651 18.5134 23.4185 18.7015 23.4143 18.8928C23.3972 19.7144 23.4235 20.5371 23.3948 21.3586C23.3514 22.6053 22.291 23.6831 21.0404 23.7315C20.1146 23.7688 19.1857 23.7394 18.258 23.7559C18.0574 23.758 17.8592 23.7996 17.6746 23.8783C16.6813 24.3273 15.634 24.646 14.559 24.8264C14.137 24.898 13.7096 24.9439 13.284 25.0002ZM19.0744 22.1453C19.777 22.1453 20.2491 22.1484 20.7212 22.1453C21.4367 22.1398 21.7993 21.7752 21.8024 21.0577C21.8054 20.301 21.8164 19.5437 21.7975 18.787C21.7897 18.389 21.889 17.9963 22.0849 17.6498C23.3893 15.203 23.7323 12.6142 23.0823 9.91904C21.6972 4.17631 15.9061 0.578224 10.142 1.85609C5.72563 2.83482 2.29196 6.53384 1.71714 10.9602C1.31293 14.0683 2.07915 16.8662 4.03601 19.3235C6.92114 22.9515 11.9166 24.3609 16.2437 22.7075C17.2478 22.3227 18.2232 21.9924 19.0744 22.1453Z" fill="#8C8C8C"/>
<path d="M3.49548 11.0817C3.49629 9.95387 3.94413 8.87235 4.74081 8.07427C5.5375 7.27618 6.61803 6.82665 7.74552 6.82422C8.87317 6.82388 9.9551 7.27011 10.7548 8.06538C11.5545 8.86065 12.007 9.94028 12.0133 11.0683C12.0137 11.6288 11.9036 12.184 11.6894 12.7019C11.4752 13.2199 11.161 13.6906 10.7648 14.087C10.3686 14.4835 9.89818 14.7979 9.38043 15.0123C8.86267 15.2268 8.30774 15.337 7.74736 15.3368C6.61972 15.3356 5.53862 14.8869 4.74143 14.0891C3.94424 13.2914 3.49613 12.2097 3.49548 11.0817ZM7.73696 13.7274C8.43555 13.7305 9.10723 13.4581 9.60634 12.9691C10.1054 12.4802 10.3918 11.8141 10.4032 11.1154C10.4071 10.7672 10.3425 10.4216 10.2129 10.0985C10.0833 9.77529 9.89129 9.48083 9.6479 9.2319C9.4045 8.98297 9.11445 8.78445 8.79433 8.64769C8.47421 8.51093 8.13029 8.43861 7.78221 8.43485C7.43387 8.43065 7.08811 8.49523 6.76474 8.62487C6.44138 8.75452 6.14675 8.94669 5.89773 9.1904C5.64871 9.4341 5.45018 9.72454 5.31353 10.0451C5.17687 10.3656 5.10476 10.71 5.10133 11.0585C5.07564 12.5021 6.27727 13.717 7.73696 13.7274Z" fill="#8C8C8C"/>
<path d="M21.5095 11.0897C21.5081 11.6503 21.3961 12.2051 21.1798 12.7222C20.9636 13.2394 20.6473 13.7087 20.2492 14.1032C19.8512 14.4978 19.3791 14.8098 18.8602 15.0214C18.3412 15.233 17.7856 15.34 17.2252 15.3362C14.8727 15.3148 12.9758 13.3989 12.9917 11.0603C12.9999 9.93229 13.4543 8.8534 14.2556 8.05959C15.0568 7.26577 16.1397 6.82161 17.2674 6.82423C19.6156 6.83463 21.5254 8.75295 21.5095 11.0897ZM17.2552 13.7274C18.7161 13.7243 19.9134 12.5241 19.9036 11.0713C19.8991 10.368 19.6156 9.69519 19.1154 9.20083C18.6153 8.70646 17.9393 8.43096 17.2362 8.43486C16.5375 8.43905 15.8688 8.71905 15.3754 9.21393C14.8821 9.70882 14.604 10.3786 14.6018 11.0775C14.6019 11.4258 14.6706 11.7707 14.804 12.0924C14.9374 12.4142 15.133 12.7065 15.3794 12.9526C15.6258 13.1987 15.9183 13.3938 16.2402 13.5267C16.562 13.6597 16.9069 13.7279 17.2552 13.7274Z" fill="#8C8C8C"/>
<path d="M12.5122 17.9231C13.8543 17.9231 15.1964 17.9231 16.5384 17.9231C17.065 17.9231 17.3982 18.1911 17.449 18.6468C17.4887 19.001 17.3151 19.2469 17.0417 19.4487C15.8266 20.3461 14.4624 20.7988 12.9562 20.8422C11.768 20.8771 10.5915 20.8073 9.49439 20.3039C8.95871 20.0592 8.45482 19.7448 7.95154 19.4304C7.58463 19.2016 7.47028 18.8376 7.58463 18.4835C7.69287 18.1391 8.00719 17.9274 8.44075 17.9237C9.08346 17.9189 9.72493 17.9237 10.3682 17.9237L12.5122 17.9231Z" fill="#8C8C8C"/>
<path d="M8.89389 11.0878C8.89358 11.2385 8.86339 11.3876 8.80507 11.5265C8.74675 11.6654 8.66145 11.7914 8.55413 11.8971C8.44681 12.0028 8.31958 12.0862 8.17983 12.1424C8.04007 12.1985 7.89056 12.2264 7.73996 12.2244C7.4397 12.2204 7.15288 12.0992 6.94072 11.8866C6.72856 11.6741 6.60785 11.387 6.60437 11.0866C6.60469 10.7821 6.72583 10.4903 6.94117 10.2751C7.15651 10.0599 7.44843 9.93905 7.7528 9.93905C7.90352 9.93814 8.05291 9.96729 8.19224 10.0248C8.33158 10.0823 8.45806 10.167 8.56429 10.274C8.67053 10.3809 8.7544 10.508 8.81099 10.6477C8.86758 10.7875 8.89576 10.9371 8.89389 11.0878Z" fill="#8C8C8C"/>
<path d="M16.111 11.0775C16.1109 10.9268 16.1407 10.7777 16.1987 10.6387C16.2567 10.4997 16.3418 10.3736 16.4489 10.2677C16.556 10.1619 16.6831 10.0784 16.8228 10.022C16.9624 9.96572 17.1119 9.93773 17.2625 9.93967C17.5625 9.94252 17.8495 10.0627 18.0621 10.2746C18.2747 10.4864 18.3959 10.773 18.3999 11.0732C18.4002 11.3776 18.2798 11.6698 18.0651 11.8856C17.8504 12.1014 17.5589 12.2233 17.2545 12.2244C17.1039 12.225 16.9547 12.1957 16.8155 12.1382C16.6763 12.0807 16.5499 11.9962 16.4436 11.8896C16.3372 11.7829 16.2531 11.6562 16.196 11.5168C16.1389 11.3774 16.11 11.2281 16.111 11.0775Z" fill="#8C8C8C"/>
</g>
<defs>
<clipPath id="clip0_21_671">
<rect width="25" height="25" fill="white"/>
</clipPath>
</defs>
</svg>
