<svg width="25" height="25" viewBox="0 0 25 25" fill="none" xmlns="http://www.w3.org/2000/svg">
<path fill-rule="evenodd" clip-rule="evenodd" d="M17.4062 1H6.93641C3.28667 1 1 3.58325 1 7.23904V17.1036C1 20.7594 3.27699 23.3427 6.93641 23.3427H17.4051C21.0657 23.3427 23.3426 20.7594 23.3426 17.1036V7.23904C23.3426 3.58325 21.0657 1 17.4062 1Z" stroke="#8C8C8C" stroke-width="1.81579" stroke-linecap="round" stroke-linejoin="round"/>
<path fill-rule="evenodd" clip-rule="evenodd" d="M10.6272 8.30666C10.6272 9.54019 9.62609 10.5413 8.39257 10.5413C7.16025 10.5413 6.15918 9.54019 6.15918 8.30666C6.15918 7.07314 7.16025 6.07202 8.39257 6.07202C9.62609 6.07202 10.6272 7.07314 10.6272 8.30666Z" stroke="#8C8C8C" stroke-width="1.81579" stroke-linecap="round" stroke-linejoin="round"/>
<path d="M23.3427 15.7696C22.1394 14.7225 21.0924 13.4624 19.7124 12.6308C18.3299 11.7991 16.8446 12.3124 15.8859 13.5532C14.9598 14.7528 14.3812 16.3664 12.983 17.123C11.2605 18.0563 10.2485 16.5516 8.81158 15.9488C7.20763 15.277 5.98986 16.4851 5.05291 17.646C4.11476 18.8081 3.16447 19.9581 2.21057 21.1081" stroke="#8C8C8C" stroke-width="1.81579" stroke-linecap="round" stroke-linejoin="round"/>
</svg>
