<svg width="46" height="36" viewBox="0 0 46 36" fill="none" xmlns="http://www.w3.org/2000/svg">
<path d="M34.7329 15.9302C38.0442 15.9302 40.7314 13.222 40.7314 9.88213C40.7314 6.54017 38.0442 3.83197 34.7329 3.83197" stroke="#B3BCC7" stroke-width="2.11966" stroke-linecap="round" stroke-linejoin="round"/>
<path d="M37.4902 22.5035C38.4803 22.5723 39.4621 22.7141 40.4315 22.933C41.7771 23.1978 43.3935 23.7545 43.9702 24.972C44.3382 25.7517 44.3382 26.6586 43.9702 27.4404C43.3956 28.6579 41.7771 29.2125 40.4315 29.4919" stroke="#B3BCC7" stroke-width="2.11966" stroke-linecap="round" stroke-linejoin="round"/>
<path d="M11.3656 15.9302C8.05434 15.9302 5.36731 13.222 5.36731 9.88213C5.36731 6.54017 8.05434 3.83197 11.3656 3.83197" stroke="#B3BCC7" stroke-width="2.11966" stroke-linecap="round" stroke-linejoin="round"/>
<path d="M8.60837 22.5035C7.61829 22.5723 6.63653 22.7141 5.66712 22.933C4.32151 23.1978 2.70307 23.7545 2.13052 24.972C1.76053 25.7517 1.76053 26.6586 2.13052 27.4404C2.70307 28.6579 4.32151 29.2125 5.66712 29.4919" stroke="#B3BCC7" stroke-width="2.11966" stroke-linecap="round" stroke-linejoin="round"/>
<path fill-rule="evenodd" clip-rule="evenodd" d="M23.04 23.8064C29.7515 23.8064 35.4833 24.83 35.4833 28.9288C35.4833 33.0275 29.7887 34.0887 23.04 34.0887C16.3265 34.0887 10.5947 33.0651 10.5947 28.9663C10.5947 24.8655 16.2913 23.8064 23.04 23.8064Z" stroke="#B3BCC7" stroke-width="2.11966" stroke-linecap="round" stroke-linejoin="round"/>
<path fill-rule="evenodd" clip-rule="evenodd" d="M23.04 17.9586C18.6125 17.9586 15.0635 14.3789 15.0635 9.91323C15.0635 5.44755 18.6125 1.87 23.04 1.87C27.4654 1.87 31.0144 5.44755 31.0144 9.91323C31.0144 14.3789 27.4654 17.9586 23.04 17.9586Z" stroke="#B3BCC7" stroke-width="2.11966" stroke-linecap="round" stroke-linejoin="round"/>
</svg>
