<svg width="37" height="36" viewBox="0 0 37 36" fill="none" xmlns="http://www.w3.org/2000/svg">
<path d="M13.5855 32.6006V27.5314C13.5855 26.2418 14.6924 25.1936 16.0638 25.1853H21.0864C22.4648 25.1853 23.5821 26.2352 23.5821 27.5314V32.6172C23.5804 33.7117 24.5097 34.6061 25.674 34.6326H29.0224C32.3604 34.6326 35.0667 32.0881 35.0667 28.9483V14.5245C35.0493 13.2894 34.4314 12.1288 33.3924 11.3749L21.941 2.69805C19.9343 1.18854 17.0819 1.18854 15.0753 2.69805L3.67423 11.3914C2.63002 12.142 2.01218 13.3043 2 14.5394V28.9483C2 32.0881 4.70623 34.6326 8.04422 34.6326H11.3927C12.5848 34.6326 13.5524 33.7232 13.5524 32.6006" stroke="white" stroke-width="2.54359" stroke-linecap="round" stroke-linejoin="round"/>
</svg>
