<svg width="41" height="36" viewBox="0 0 41 36" fill="none" xmlns="http://www.w3.org/2000/svg">
<path d="M26.4525 24.5657V17.9532C26.4525 14.9364 24.0164 12.4907 21.0112 12.4907H8.60828V6.16577C8.60828 3.62528 10.6598 1.5658 13.1905 1.5658H34.5739C37.1046 1.5658 39.1561 3.62528 39.1561 6.16577V19.9657L39.1864 28.49C39.1882 28.9928 38.7836 29.4018 38.2827 29.4036C38.0411 29.4045 37.8091 29.3085 37.6382 29.137L33.0846 24.5657H26.4525Z" stroke="#B3BCC7" stroke-width="1.69573"/>
<path d="M4.86994 32.5201V31.6722H4.52861L4.28249 31.9087L4.86994 32.5201ZM2.61386 34.6879L2.02642 34.0765H2.02642L2.61386 34.6879ZM1.33164 34.6597L1.94529 34.0746L1.94529 34.0746L1.33164 34.6597ZM1.0799 29.4689H1.92777V29.4005L1.9168 29.333L1.0799 29.4689ZM0.184607 19.7743V28.8785H1.88033V19.7743H0.184607ZM4.66003 15.2848C2.18522 15.2848 0.184607 17.298 0.184607 19.7743H1.88033C1.88033 18.2283 3.12794 16.9806 4.66003 16.9806V15.2848ZM19.1703 15.2848H4.66003V16.9806H19.1703V15.2848ZM23.6457 19.7743C23.6457 17.298 21.6451 15.2848 19.1703 15.2848V16.9806C20.7023 16.9806 21.9499 18.2283 21.9499 19.7743H23.6457ZM23.6457 28.8785V19.7743H21.9499V28.8785H23.6457ZM19.1703 33.368C21.6451 33.368 23.6457 31.3549 23.6457 28.8785H21.9499C21.9499 30.4245 20.7023 31.6722 19.1703 31.6722V33.368ZM4.86994 33.368H19.1703V31.6722H4.86994V33.368ZM3.20131 35.2992L5.45738 33.1315L4.28249 31.9087L2.02642 34.0765L3.20131 35.2992ZM0.717988 35.2447C1.38823 35.9477 2.5008 35.9723 3.20131 35.2992L2.02642 34.0765C2.00327 34.0987 1.96769 34.0981 1.94529 34.0746L0.717988 35.2447ZM0.232042 34.0302C0.232042 34.4821 0.405778 34.9173 0.717989 35.2447L1.94529 34.0746C1.93439 34.0632 1.92777 34.0473 1.92777 34.0302H0.232042ZM0.232042 29.4689V34.0302H1.92777V29.4689H0.232042ZM0.184607 28.8785C0.184607 29.1252 0.204527 29.3679 0.243006 29.6048L1.9168 29.333C1.89287 29.1856 1.88033 29.0338 1.88033 28.8785H0.184607ZM9.16253 22.5059C9.16253 22.4682 9.19205 22.4433 9.22155 22.4433V20.7476C8.24933 20.7476 7.4668 21.5379 7.4668 22.5059H9.16253ZM9.22155 22.5684C9.19205 22.5684 9.16253 22.5435 9.16253 22.5059H7.4668C7.4668 23.4738 8.24933 24.2641 9.22155 24.2641V22.5684ZM18.2904 22.5684H9.22155V24.2641H18.2904V22.5684ZM18.3495 22.5059C18.3495 22.5435 18.3199 22.5684 18.2904 22.5684V24.2641C19.2627 24.2641 20.0452 23.4738 20.0452 22.5059H18.3495ZM18.2904 22.4433C18.3199 22.4433 18.3495 22.4682 18.3495 22.5059H20.0452C20.0452 21.5379 19.2627 20.7476 18.2904 20.7476V22.4433ZM9.22155 22.4433H18.2904V20.7476H9.22155V22.4433ZM14.663 24.3891C13.6908 24.3891 12.9083 25.1794 12.9083 26.1474H14.604C14.604 26.1097 14.6335 26.0848 14.663 26.0848V24.3891ZM18.2906 24.3891H14.663V26.0848H18.2906V24.3891ZM20.0453 26.1474C20.0453 25.1794 19.2628 24.3891 18.2906 24.3891V26.0848C18.3201 26.0848 18.3496 26.1097 18.3496 26.1474H20.0453ZM18.2906 27.9057C19.2628 27.9057 20.0453 27.1153 20.0453 26.1474H18.3496C18.3496 26.185 18.3201 26.2099 18.2906 26.2099V27.9057ZM14.663 27.9057H18.2906V26.2099H14.663V27.9057ZM12.9083 26.1474C12.9083 27.1153 13.6908 27.9057 14.663 27.9057V26.2099C14.6335 26.2099 14.604 26.185 14.604 26.1474H12.9083Z" fill="#BBC5D1"/>
</svg>
