<svg width="39" height="39" viewBox="0 0 39 39" fill="none" xmlns="http://www.w3.org/2000/svg">
<path d="M8.56225 15.8437C8.56023 14.3982 8.84432 12.9667 9.39814 11.6316C9.95195 10.2965 10.7645 9.08416 11.7891 8.06455C12.8136 7.04494 14.0298 6.2382 15.3676 5.69081C16.7053 5.14343 18.1382 4.86624 19.5836 4.87521C25.6149 4.92005 30.4391 9.93323 30.4391 15.9814V17.0624C30.4391 22.5187 31.5806 25.6849 32.5861 27.4154C32.6944 27.6003 32.752 27.8105 32.7532 28.0248C32.7543 28.2391 32.6989 28.4499 32.5926 28.6359C32.4863 28.822 32.3328 28.9767 32.1476 29.0845C31.9624 29.1923 31.752 29.2494 31.5377 29.2499H7.46242C7.24811 29.2494 7.03773 29.1923 6.8525 29.0845C6.66728 28.9767 6.51377 28.8219 6.40746 28.6358C6.30114 28.4497 6.24578 28.2389 6.24697 28.0246C6.24815 27.8103 6.30583 27.6 6.4142 27.4151C7.42017 25.6846 8.56225 22.5184 8.56225 17.0624L8.56225 15.8437Z" stroke="#BBC5D1" stroke-width="1.27" stroke-linecap="round" stroke-linejoin="round"/>
<path d="M14.625 29.25V30.4688C14.625 31.7617 15.1386 33.0017 16.0529 33.9159C16.9671 34.8301 18.2071 35.3438 19.5 35.3438C20.7929 35.3438 22.0329 34.8301 22.9471 33.9159C23.8614 33.0017 24.375 31.7617 24.375 30.4688V29.25" stroke="#BBC5D1" stroke-width="1.27" stroke-linecap="round" stroke-linejoin="round"/>
<circle cx="25.8673" cy="10.7449" r="7.95918" fill="#FF2B1E" stroke="#DBE5F9" stroke-width="2.38775"/>
<path d="M25.1598 12.1817C25.2075 12.4539 25.3174 12.6641 25.4893 12.8121C25.666 12.9601 25.9024 13.0342 26.1985 13.0342C26.5948 13.0342 26.8861 12.879 27.0724 12.5686C27.2634 12.2581 27.3541 11.7352 27.3446 10.9998C27.2443 11.2147 27.0772 11.3842 26.8432 11.5084C26.6092 11.6278 26.3489 11.6875 26.0624 11.6875C25.7424 11.6875 25.4559 11.623 25.2028 11.4941C24.9544 11.3603 24.7586 11.1669 24.6154 10.9138C24.4721 10.6607 24.4005 10.3551 24.4005 9.99694C24.4005 9.48596 24.5485 9.07527 24.8446 8.76486C25.1407 8.44968 25.5609 8.29208 26.1053 8.29208C26.7739 8.29208 27.2419 8.50937 27.5093 8.94394C27.7815 9.37851 27.9176 10.0256 27.9176 10.8852C27.9176 11.4869 27.8627 11.9836 27.7529 12.3751C27.6478 12.7667 27.4664 13.0652 27.2085 13.2706C26.9554 13.4759 26.6068 13.5786 26.1626 13.5786C25.6755 13.5786 25.2959 13.4472 25.0237 13.1846C24.7515 12.9219 24.5963 12.5877 24.5581 12.1817H25.1598ZM26.1698 11.1359C26.4898 11.1359 26.7524 11.038 26.9578 10.8422C27.1631 10.6416 27.2658 10.3718 27.2658 10.0328C27.2658 9.67459 27.1655 9.38568 26.9649 9.166C26.7644 8.94633 26.4826 8.83649 26.1197 8.83649C25.7854 8.83649 25.518 8.94155 25.3174 9.15168C25.1216 9.3618 25.0237 9.63878 25.0237 9.98261C25.0237 10.3312 25.1216 10.6106 25.3174 10.8207C25.5132 11.0308 25.7973 11.1359 26.1698 11.1359Z" fill="white"/>
</svg>
