<svg width="30" height="31" viewBox="0 0 30 31" fill="none" xmlns="http://www.w3.org/2000/svg">
<path fill-rule="evenodd" clip-rule="evenodd" d="M23.0807 0.413574H6.59449C2.95245 0.413574 0 3.36603 0 7.00807C0 10.6501 2.95245 13.6026 6.59449 13.6026H23.0807C26.7228 13.6026 29.6752 10.6501 29.6752 7.00807C29.6752 3.36603 26.7228 0.413574 23.0807 0.413574ZM9.89184 7.00819C9.89184 8.82921 8.41561 10.3054 6.59459 10.3054C4.77358 10.3054 3.29735 8.82921 3.29735 7.00819C3.29735 5.18717 4.77358 3.71094 6.59459 3.71094C8.41561 3.71094 9.89184 5.18717 9.89184 7.00819Z" fill="#C4C7CB"/>
<path fill-rule="evenodd" clip-rule="evenodd" d="M23.0808 16.8998H6.59461C2.95258 16.8998 0.00012207 19.8523 0.00012207 23.4943C0.00012207 27.1364 2.95258 30.0888 6.59461 30.0888H23.0808C26.7229 30.0888 29.6753 27.1364 29.6753 23.4943C29.6753 19.8523 26.7229 16.8998 23.0808 16.8998ZM26.378 23.4943C26.378 25.3153 24.9018 26.7915 23.0807 26.7915C21.2597 26.7915 19.7835 25.3153 19.7835 23.4943C19.7835 21.6732 21.2597 20.197 23.0807 20.197C24.9018 20.197 26.378 21.6732 26.378 23.4943Z" fill="#C4C7CB"/>
</svg>
