<svg width="177" height="172" viewBox="0 0 177 172" fill="none" xmlns="http://www.w3.org/2000/svg">
<path d="M88.9405 156.215C84.6073 156.215 80.2741 156.215 75.8675 156.215C75.5003 156.142 75.133 155.921 74.6924 155.921C65.8791 155.04 57.433 152.543 49.5011 148.65C20.5642 134.255 1.7625 101.72 9.98823 65.9525C17.0388 35.253 36.5015 16.4513 66.9073 8.88659C70.4326 8.00526 74.0314 7.71148 77.6301 7.19737C80.9351 7.19737 84.2401 7.19737 87.4716 7.19737C87.9857 7.27082 88.4999 7.4177 89.014 7.49114C93.8613 8.37247 98.8554 8.81314 103.482 10.282C112.075 12.9994 120.521 16.231 128.967 19.3156C137.193 22.4003 145.492 25.338 153.571 28.7899C161.65 32.2418 166.938 38.558 169.509 47.004C170.023 48.6198 170.316 50.309 170.684 51.9248C170.684 54.275 170.684 56.6252 170.684 58.9754C169.141 64.043 167.526 69.1107 166.057 74.2517C164.588 79.3928 162.531 84.2401 161.136 89.4546C159.373 96.2115 156.142 102.601 153.204 108.991C142.628 132.566 124.781 147.622 99.8837 154.306C96.4318 155.187 92.6862 155.554 88.9405 156.215ZM93.494 24.7505C69.4044 18.7281 35.1795 31.1401 24.9708 65.8057C16.0841 95.9911 32.6824 129.702 66.1729 138.809C97.2397 147.255 125.809 129.041 135.21 105.172C125.956 101.206 116.776 97.3131 107.522 93.3472C100.471 108.403 85.048 112.957 73.0032 109.211C59.9301 105.172 51.1903 92.0252 53.3202 77.9239C54.3484 71.314 57.2127 65.6588 62.1335 61.1787C69.2575 54.7156 77.777 52.5857 87.2513 54.2015C89.3812 44.2131 91.4376 34.5185 93.494 24.7505ZM103.262 55.7438C103.262 65.2916 110.974 73.297 120.228 73.297C129.849 73.297 137.928 65.4384 137.928 56.0376C137.928 46.5633 130.069 38.6314 120.595 38.558C111.121 38.4845 103.262 46.2696 103.262 55.7438Z" fill="url(#paint0_linear_203_1903)"/>
<defs>
<linearGradient id="paint0_linear_203_1903" x1="89.365" y1="7.19737" x2="89.365" y2="156.215" gradientUnits="userSpaceOnUse">
<stop stop-color="#0166FF"/>
<stop offset="1" stop-color="#005BE7"/>
</linearGradient>
</defs>
</svg>
