<svg width="26" height="27" viewBox="0 0 26 27" fill="none" xmlns="http://www.w3.org/2000/svg">
<g id="book-open-text">
<path id="book-open-text_2" d="M22.7072 5.01816C22.7061 5.01816 22.7062 5.01819 22.7051 5.01711C20.8711 4.14754 18.838 3.84258 16.6614 4.10873C15.0946 4.30161 13.7692 5.19698 12.9708 6.45123C12.1712 5.19806 10.8469 4.30161 9.28017 4.10873C7.10033 3.84258 5.0693 4.14754 3.23642 5.01711C3.23642 5.01711 3.23645 5.01711 3.23537 5.01711C2.76772 5.23908 2.46484 5.72065 2.46484 6.24433V20.2576C2.46484 20.6822 2.65871 21.0712 2.99598 21.3266C3.33217 21.582 3.78061 21.6627 4.189 21.5485C7.32246 20.6585 9.97201 21.0357 12.5214 22.7349C12.5322 22.7425 12.5451 22.7446 12.5559 22.7511C12.5678 22.7576 12.5764 22.7683 12.5893 22.7748C12.6012 22.7813 12.6151 22.7781 12.6269 22.7845C12.7358 22.8362 12.8512 22.8707 12.9697 22.8707C13.0882 22.8707 13.2034 22.8362 13.3122 22.7845C13.3241 22.7791 13.3383 22.7813 13.3501 22.7748C13.362 22.7683 13.3717 22.7587 13.3825 22.7511C13.3932 22.7446 13.4062 22.7425 13.4169 22.7349C15.9664 21.0346 18.6148 20.6574 21.7494 21.5474C22.1588 21.6638 22.6049 21.582 22.9421 21.3266C23.2794 21.0723 23.4735 20.6822 23.4735 20.2576V6.24433C23.4768 5.7228 23.1749 5.24121 22.7072 5.01816ZM7.29532 19.4689C6.25981 19.4689 5.18992 19.6144 4.08114 19.9021V6.40598C5.61123 5.71313 7.25241 5.48586 9.08313 5.71214C10.8395 5.92764 12.1626 7.42534 12.1626 9.19464V20.6498C10.6164 19.8622 9.00212 19.4689 7.29532 19.4689ZM21.8604 19.9031C18.9209 19.1392 16.2637 19.3838 13.7789 20.6521V9.19688C13.7789 7.4265 15.1031 5.92975 16.8584 5.71424C17.3131 5.65821 17.7561 5.63019 18.1882 5.63019C19.4974 5.63019 20.7096 5.88777 21.8593 6.40822V19.9031H21.8604ZM16.2034 9.40155H19.4359C19.882 9.40155 20.2441 9.7636 20.2441 10.2097C20.2441 10.6558 19.882 11.0178 19.4359 11.0178H16.2034C15.7573 11.0178 15.3952 10.6558 15.3952 10.2097C15.3952 9.7636 15.7573 9.40155 16.2034 9.40155ZM19.1666 13.4423C19.1666 13.8884 18.8045 14.2504 18.3584 14.2504H16.2034C15.7573 14.2504 15.3952 13.8884 15.3952 13.4423C15.3952 12.9962 15.7573 12.6341 16.2034 12.6341H18.3584C18.8045 12.6341 19.1666 12.9962 19.1666 13.4423Z" fill="#0162F5"/>
</g>
</svg>
