<svg width="128" height="19" viewBox="0 0 128 19" fill="none" xmlns="http://www.w3.org/2000/svg">
<path d="M10.0588 0L13.478 5.82956L20.1176 7.25735L15.5912 12.288L16.2755 19L10.0588 16.2796L3.84213 19L4.52647 12.288L0 7.25735L6.63964 5.82956L10.0588 0Z" fill="#DFB300"/>
<path d="M36.8824 0L40.3015 5.82956L46.9412 7.25735L42.4147 12.288L43.0991 19L36.8824 16.2796L30.6657 19L31.35 12.288L26.8235 7.25735L33.4632 5.82956L36.8824 0Z" fill="#DFB300"/>
<path d="M63.7059 0L67.125 5.82956L73.7647 7.25735L69.2382 12.288L69.9225 19L63.7059 16.2796L57.4892 19L58.1735 12.288L53.647 7.25735L60.2867 5.82956L63.7059 0Z" fill="#DFB300"/>
<path d="M90.5294 0L93.9486 5.82956L100.588 7.25735L96.0618 12.288L96.7461 19L90.5294 16.2796L84.3127 19L84.997 12.288L80.4706 7.25735L87.1102 5.82956L90.5294 0Z" fill="#DFB300"/>
<path d="M117.353 0L120.772 5.82956L127.412 7.25735L122.885 12.288L123.57 19L117.353 16.2796L111.136 19L111.821 12.288L107.294 7.25735L113.934 5.82956L117.353 0Z" fill="#626262"/>
<path d="M111.136 19L117.353 16.2796V0L113.934 5.82956L107.294 7.25735L111.821 12.288L111.136 19Z" fill="#DFB300"/>
</svg>
