<svg width="26" height="25" viewBox="0 0 26 25" fill="none" xmlns="http://www.w3.org/2000/svg">
<g clip-path="url(#clip0_9_221)">
<path d="M22.8305 19.5061C22.4566 20.3622 22.014 21.1502 21.5012 21.8746C20.8021 22.8623 20.2298 23.5459 19.7887 23.9255C19.105 24.5487 18.3724 24.8678 17.5879 24.8859C17.0247 24.8859 16.3455 24.7271 15.5549 24.405C14.7617 24.0843 14.0328 23.9255 13.3663 23.9255C12.6672 23.9255 11.9175 24.0843 11.1156 24.405C10.3125 24.7271 9.66555 24.895 9.17089 24.9116C8.4186 24.9434 7.66876 24.6152 6.92028 23.9255C6.44257 23.5126 5.84504 22.8048 5.12923 21.802C4.36122 20.7312 3.72981 19.4895 3.23515 18.0738C2.70539 16.5447 2.43982 15.064 2.43982 13.6305C2.43982 11.9884 2.79788 10.5722 3.51506 9.38533C4.07871 8.43202 4.82856 7.68003 5.76705 7.12798C6.70554 6.57593 7.71958 6.29461 8.81161 6.27661C9.40914 6.27661 10.1927 6.45977 11.1665 6.81974C12.1375 7.18091 12.7609 7.36407 13.0343 7.36407C13.2387 7.36407 13.9313 7.14991 15.1054 6.72294C16.2158 6.32698 17.1529 6.16303 17.9206 6.22761C20.0009 6.39398 21.5637 7.20662 22.6031 8.67069C20.7426 9.78779 19.8223 11.3524 19.8406 13.3596C19.8574 14.9231 20.4297 16.2241 21.5546 17.2571C22.0644 17.7365 22.6336 18.1071 23.267 18.3703C23.1297 18.765 22.9847 19.1431 22.8305 19.5061ZM18.0595 0.901325C18.0595 2.12674 17.6077 3.2709 16.7072 4.32992C15.6205 5.5889 14.3061 6.31639 12.8808 6.20159C12.8626 6.05458 12.8521 5.89986 12.8521 5.73727C12.8521 4.56088 13.3688 3.3019 14.2866 2.27252C14.7448 1.75133 15.3275 1.31796 16.0341 0.972258C16.7393 0.631713 17.4062 0.443383 18.0335 0.411133C18.0518 0.574951 18.0595 0.73878 18.0595 0.901309V0.901325Z" fill="black"/>
</g>
<defs>
<clipPath id="clip0_9_221">
<rect width="24.5026" height="24.5026" fill="white" transform="translate(0.602112 0.411133)"/>
</clipPath>
</defs>
</svg>
