<svg width="25" height="25" viewBox="0 0 25 25" fill="none" xmlns="http://www.w3.org/2000/svg">
<g clip-path="url(#clip0_9_228)">
<path fill-rule="evenodd" clip-rule="evenodd" d="M24.0911 12.941C24.0911 12.0723 24.0131 11.237 23.8683 10.4351H12.3298V15.1741H18.9233C18.6393 16.7055 17.7761 18.003 16.4786 18.8718V21.9457H20.438C22.7546 19.8129 24.0911 16.6721 24.0911 12.941Z" fill="#4285F4"/>
<path fill-rule="evenodd" clip-rule="evenodd" d="M12.3298 24.9136C15.6377 24.9136 18.4109 23.8165 20.4379 21.9454L16.4785 18.8714C15.3815 19.6065 13.9782 20.0409 12.3298 20.0409C9.1389 20.0409 6.43804 17.8858 5.47464 14.99H1.38159V18.1642C3.39749 22.1681 7.54066 24.9136 12.3298 24.9136Z" fill="#34A853"/>
<path fill-rule="evenodd" clip-rule="evenodd" d="M5.47464 14.9901C5.22961 14.255 5.09039 13.4698 5.09039 12.6624C5.09039 11.8549 5.22961 11.0697 5.47464 10.3346V7.1604H1.38158C0.551837 8.81433 0.0784912 10.6854 0.0784912 12.6624C0.0784912 14.6393 0.551837 16.5104 1.38158 18.1643L5.47464 14.9901Z" fill="#FBBC05"/>
<path fill-rule="evenodd" clip-rule="evenodd" d="M12.3298 5.28381C14.1285 5.28381 15.7435 5.90195 17.0131 7.11594L20.527 3.60204C18.4053 1.62513 15.6321 0.411133 12.3298 0.411133C7.54066 0.411133 3.39749 3.15654 1.38159 7.16049L5.47464 10.3347C6.43804 7.43893 9.1389 5.28381 12.3298 5.28381Z" fill="#EA4335"/>
</g>
<defs>
<clipPath id="clip0_9_228">
<rect width="24.5026" height="24.5026" fill="white" transform="translate(0.0784912 0.411133)"/>
</clipPath>
</defs>
</svg>
