<svg width="27" height="26" viewBox="0 0 27 26" fill="none" xmlns="http://www.w3.org/2000/svg">
<path d="M11.7549 0.744253C12.8742 0.380561 14.08 0.380561 15.1993 0.744253L19.1255 2.01995C20.2448 2.38364 21.2203 3.09235 21.9121 4.04451L24.3386 7.38433C25.0304 8.33649 25.4029 9.48321 25.4029 10.6601V14.7884C25.4029 15.9653 25.0304 17.112 24.3386 18.0642L21.9121 21.404C21.2203 22.3562 20.2448 23.0649 19.1255 23.4286L15.1993 24.7043C14.08 25.068 12.8742 25.068 11.7549 24.7043L7.8287 23.4286C6.70937 23.0649 5.73391 22.3562 5.04213 21.404L2.61561 18.0642C1.92382 17.112 1.55123 15.9653 1.55123 14.7884V10.6601C1.55123 9.48321 1.92382 8.33649 2.61561 7.38433L5.04213 4.04451C5.73391 3.09235 6.70937 2.38364 7.8287 2.01995L11.7549 0.744253Z" fill="#0166FF"/>
<path d="M9.29688 12.3759L12.0835 15.1625L17.6566 9.58937" stroke="white" stroke-width="2.78658" stroke-miterlimit="10" stroke-linecap="round" stroke-linejoin="round"/>
</svg>
