<svg width="22" height="25" viewBox="0 0 22 25" fill="none" xmlns="http://www.w3.org/2000/svg">
<path d="M7.59846 15.0564C7.11007 15.0564 6.69891 14.9666 6.36497 14.7871C6.03521 14.6034 5.78684 14.3426 5.61987 14.0044C5.4529 13.6663 5.36942 13.2635 5.36942 12.796C5.36942 12.3285 5.45708 11.9257 5.6324 11.5876C5.81189 11.2495 6.06652 10.9886 6.39628 10.8049C6.73022 10.6212 7.13094 10.5294 7.59846 10.5294C7.91987 10.5294 8.19955 10.5753 8.43748 10.6672C8.67541 10.7548 8.88829 10.8842 9.07613 11.0554L8.84447 11.5625C8.71089 11.4498 8.58149 11.3601 8.45626 11.2933C8.33103 11.2265 8.20163 11.1785 8.06806 11.1493C7.93448 11.1159 7.77795 11.0992 7.59846 11.0992C7.09338 11.0992 6.70935 11.2474 6.44637 11.5437C6.18339 11.8401 6.05191 12.2596 6.05191 12.8023C6.05191 13.3533 6.17713 13.7728 6.42759 14.0608C6.68221 14.3488 7.08085 14.4928 7.6235 14.4928C7.81134 14.4928 7.9971 14.4761 8.18076 14.4427C8.36443 14.4052 8.54183 14.3509 8.71298 14.2799L8.58775 14.5868V13.1404H7.49828V12.652H9.13249V14.737C9.00726 14.7996 8.85908 14.856 8.68793 14.9061C8.52096 14.952 8.34356 14.9875 8.15572 15.0125C7.96788 15.0417 7.78212 15.0564 7.59846 15.0564ZM10.124 15V10.5858H10.7752V15H10.124ZM11.8116 15V10.5858H14.6417V11.1054H12.4628V12.5205H14.4977V13.0402H12.4628V15H11.8116Z" fill="#8C8C8C"/>
<path fill-rule="evenodd" clip-rule="evenodd" d="M14.1337 1.01498H5.80161C3.22296 1.01498 1 3.10521 1 5.68512V19.1019C1 21.8271 3.07768 24 5.80161 24H15.8069C18.3868 24 20.477 21.683 20.477 19.1019V7.62255L14.1337 1.01498Z" stroke="#8C8C8C" stroke-width="1.5" stroke-linecap="round" stroke-linejoin="round"/>
<path d="M13.8043 1V4.64317C13.8043 6.42156 15.2433 7.8643 17.0204 7.86805C18.6698 7.87181 20.3568 7.87306 20.4707 7.86555" stroke="#8C8C8C" stroke-width="1.5" stroke-linecap="round" stroke-linejoin="round"/>
</svg>
