<svg width="16" height="16" viewBox="0 0 16 16" fill="none" xmlns="http://www.w3.org/2000/svg">
<g clip-path="url(#clip0_23_802)">
<path opacity="0.6" d="M8.97334 1.04666C9.02182 1.08676 9.07037 1.1267 9.11896 1.16636L9.11903 1.16641C11.1503 2.82396 13.1821 4.48101 15.2144 6.13756L8.98418 11.237V8.48449V7.91808L8.42215 7.98835C8.32318 8.00073 8.21764 8.01205 8.10856 8.02375C7.85291 8.05119 7.57779 8.08071 7.32214 8.13073L7.322 8.13075C4.39344 8.70463 2.17654 10.3092 0.791039 12.9725L0.79103 12.9726C0.688765 13.1692 0.591856 13.3708 0.498901 13.5746V12.3307C0.508051 12.2871 0.515394 12.2431 0.520908 12.1989L0.522876 12.1831L0.523836 12.1672C0.585099 11.1548 0.810753 10.1899 1.23937 9.29137C2.53427 6.57744 4.64029 4.95056 7.59689 4.40217L7.59727 4.4021C7.79469 4.36533 7.98289 4.34451 8.19305 4.32128C8.30034 4.30941 8.41334 4.29692 8.53622 4.28134L8.97334 4.22593V3.78531V1.04666Z" stroke="#8C8C8C"/>
</g>
<defs>
<clipPath id="clip0_23_802">
<rect width="16" height="16" fill="white"/>
</clipPath>
</defs>
</svg>
